<svg width="46" height="46" viewBox="0 0 46 46" fill="none" xmlns="http://www.w3.org/2000/svg">
<path d="M40.4443 5.0387L25.3242 16.2686L28.1202 9.6431L40.4443 5.0387Z" fill="#E2761B" stroke="#E2761B" stroke-width="0.081607" stroke-linecap="round" stroke-linejoin="round"/>
<path d="M5.53857 5.03809L20.5371 16.3744L17.8778 9.64249L5.53857 5.03809Z" fill="#E4761B" stroke="#E4761B" stroke-width="0.081607" stroke-linecap="round" stroke-linejoin="round"/>
<path d="M35.0046 31.0691L30.9775 37.2387L39.5937 39.6092L42.0707 31.2058L35.0046 31.0691Z" fill="#E4761B" stroke="#E4761B" stroke-width="0.081607" stroke-linecap="round" stroke-linejoin="round"/>
<path d="M3.94336 31.2058L6.40512 39.6092L15.0213 37.2387L10.9943 31.0691L3.94336 31.2058Z" fill="#E4761B" stroke="#E4761B" stroke-width="0.081607" stroke-linecap="round" stroke-linejoin="round"/>
<path d="M14.5352 20.6446L12.1343 24.2766L20.6896 24.6564L20.3857 15.4628L14.5352 20.6446Z" fill="#E4761B" stroke="#E4761B" stroke-width="0.081607" stroke-linecap="round" stroke-linejoin="round"/>
<path d="M31.4483 20.6446L25.5218 15.3564L25.3242 24.6564L33.8645 24.2764L31.4483 20.6446Z" fill="#E4761B" stroke="#E4761B" stroke-width="0.081607" stroke-linecap="round" stroke-linejoin="round"/>
<path d="M15.021 37.2386L20.1572 34.7313L15.72 31.2666L15.021 37.2386Z" fill="#E4761B" stroke="#E4761B" stroke-width="0.081607" stroke-linecap="round" stroke-linejoin="round"/>
<path d="M25.8257 34.7313L30.9771 37.2386L30.2629 31.2666L25.8257 34.7313Z" fill="#E4761B" stroke="#E4761B" stroke-width="0.081607" stroke-linecap="round" stroke-linejoin="round"/>
<path d="M30.9787 37.2388L25.8271 34.7314L26.2375 38.0897L26.1919 39.503L30.9787 37.2388Z" fill="#D7C1B3" stroke="#D7C1B3" stroke-width="0.081607" stroke-linecap="round" stroke-linejoin="round"/>
<path d="M15.021 37.2394L19.8077 39.5036L19.7773 38.0904L20.1572 34.7321L15.021 37.2394Z" fill="#D7C1B3" stroke="#D7C1B3" stroke-width="0.081607" stroke-linecap="round" stroke-linejoin="round"/>
<path d="M19.8834 29.0484L15.5981 27.7871L18.6222 26.4043L19.8834 29.0484Z" fill="#233447" stroke="#233447" stroke-width="0.081607" stroke-linecap="round" stroke-linejoin="round"/>
<path d="M26.1001 29.0484L27.3613 26.4043L30.4006 27.7871L26.1001 29.0484Z" fill="#233447" stroke="#233447" stroke-width="0.081607" stroke-linecap="round" stroke-linejoin="round"/>
<path d="M15.0216 37.2388L15.751 31.0692L10.9946 31.2059L15.0216 37.2388Z" fill="#CD6116" stroke="#CD6116" stroke-width="0.081607" stroke-linecap="round" stroke-linejoin="round"/>
<path d="M30.2476 31.0692L30.977 37.2388L35.0039 31.2059L30.2476 31.0692Z" fill="#CD6116" stroke="#CD6116" stroke-width="0.081607" stroke-linecap="round" stroke-linejoin="round"/>
<path d="M33.8645 24.2767L25.3242 24.6566L26.1144 29.0483L27.3757 26.4042L30.4149 27.7871L33.8645 24.2767Z" fill="#CD6116" stroke="#CD6116" stroke-width="0.081607" stroke-linecap="round" stroke-linejoin="round"/>
<path d="M15.6004 27.7871L18.6397 26.4042L19.8857 29.0483L20.6911 24.6566L12.1357 24.2767L15.6004 27.7871Z" fill="#CD6116" stroke="#CD6116" stroke-width="0.081607" stroke-linecap="round" stroke-linejoin="round"/>
<path d="M12.1357 24.2767L15.7219 31.267L15.6004 27.7871L12.1357 24.2767Z" fill="#E4751F" stroke="#E4751F" stroke-width="0.081607" stroke-linecap="round" stroke-linejoin="round"/>
<path d="M30.4156 27.7871L30.2637 31.267L33.8652 24.2767L30.4156 27.7871Z" fill="#E4751F" stroke="#E4751F" stroke-width="0.081607" stroke-linecap="round" stroke-linejoin="round"/>
<path d="M20.6906 24.6565L19.8853 29.0482L20.8882 34.23L21.1162 27.407L20.6906 24.6565Z" fill="#E4751F" stroke="#E4751F" stroke-width="0.081607" stroke-linecap="round" stroke-linejoin="round"/>
<path d="M25.3258 24.6565L24.9155 27.3918L25.0979 34.23L26.116 29.0482L25.3258 24.6565Z" fill="#E4751F" stroke="#E4751F" stroke-width="0.081607" stroke-linecap="round" stroke-linejoin="round"/>
<path d="M26.1138 29.0481L25.0957 34.2298L25.8251 34.7313L30.2623 31.2666L30.4143 27.7867L26.1138 29.0481Z" fill="#F6851B" stroke="#F6851B" stroke-width="0.081607" stroke-linecap="round" stroke-linejoin="round"/>
<path d="M15.5981 27.7867L15.7197 31.2666L20.157 34.7313L20.8864 34.2298L19.8834 29.0481L15.5981 27.7867Z" fill="#F6851B" stroke="#F6851B" stroke-width="0.081607" stroke-linecap="round" stroke-linejoin="round"/>
<path d="M26.1901 39.5031L26.2356 38.0898L25.8558 37.7555H20.1268L19.7773 38.0898L19.8077 39.5031L15.021 37.2389L16.6925 38.6065L20.0812 40.9619H25.9013L29.3052 38.6065L30.9767 37.2389L26.1901 39.5031Z" fill="#C0AD9E" stroke="#C0AD9E" stroke-width="0.081607" stroke-linecap="round" stroke-linejoin="round"/>
<path d="M25.8258 34.7316L25.0964 34.2301H20.8871L20.1577 34.7316L19.7778 38.0899L20.1274 37.7555H25.8563L26.2361 38.0899L25.8258 34.7316Z" fill="#161616" stroke="#161616" stroke-width="0.081607" stroke-linecap="round" stroke-linejoin="round"/>
<path d="M41.0839 16.9974L42.3756 10.7974L40.4457 5.03809L25.8271 15.8881L31.4496 20.6444L39.3972 22.9694L41.1599 20.9179L40.4002 20.3709L41.6158 19.2616L40.6736 18.5322L41.8893 17.6052L41.0839 16.9974Z" fill="#763D16" stroke="#763D16" stroke-width="0.081607" stroke-linecap="round" stroke-linejoin="round"/>
<path d="M3.62402 10.7987L4.91569 16.9987L4.0951 17.6066L5.31079 18.5335L4.38383 19.2629L5.59951 20.3723L4.83971 20.9193L6.58725 22.9708L14.5348 20.6457L20.1573 15.8894L5.53873 5.03943L3.62402 10.7987Z" fill="#763D16" stroke="#763D16" stroke-width="0.081607" stroke-linecap="round" stroke-linejoin="round"/>
<path d="M39.396 22.97L31.4484 20.645L33.8646 24.2769L30.2632 31.2671L35.0043 31.2063H42.0705L39.396 22.97Z" fill="#F6851B" stroke="#F6851B" stroke-width="0.081607" stroke-linecap="round" stroke-linejoin="round"/>
<path d="M14.5355 20.645L6.58796 22.97L3.94385 31.2063H10.9948L15.7208 31.2671L12.1345 24.2769L14.5355 20.645Z" fill="#F6851B" stroke="#F6851B" stroke-width="0.081607" stroke-linecap="round" stroke-linejoin="round"/>
<path d="M25.3235 24.6568L25.825 15.8886L28.1347 9.64307H17.8774L20.1569 15.8886L20.6887 24.6568L20.8711 27.4225L20.8863 34.2302H25.0956L25.1259 27.4225L25.3235 24.6568Z" fill="#F6851B" stroke="#F6851B" stroke-width="0.081607" stroke-linecap="round" stroke-linejoin="round"/>
</svg>
