<svg width="46" height="46" viewBox="0 0 46 46" fill="none" xmlns="http://www.w3.org/2000/svg">
<mask id="mask0_301_3769" style="mask-type:luminance" maskUnits="userSpaceOnUse" x="2" y="2" width="42" height="42">
<path d="M43.8908 2.10925H2.10938V43.8907H43.8908V2.10925Z" fill="white"/>
</mask>
<g mask="url(#mask0_301_3769)">
<path d="M23.0001 43.8907C34.5377 43.8907 43.8908 34.5376 43.8908 23C43.8908 11.4623 34.5377 2.10925 23.0001 2.10925C11.4625 2.10925 2.10938 11.4623 2.10938 23C2.10938 34.5376 11.4625 43.8907 23.0001 43.8907Z" fill="#3375BB"/>
<path fill-rule="evenodd" clip-rule="evenodd" d="M22.2265 10.1456C22.76 9.70001 23.5359 9.70001 24.0694 10.1456C27.5812 13.0784 31.5857 13.0563 33.1492 13.0476C33.2268 13.0472 33.2985 13.0468 33.3637 13.0468C33.7487 13.0468 34.1176 13.2012 34.3878 13.4755C34.658 13.7498 34.8068 14.121 34.801 14.506C34.7269 19.4201 34.5299 22.934 34.1421 25.5132C33.7545 28.0906 33.158 29.8747 32.1862 31.2254C31.2069 32.5865 29.949 33.3565 28.6317 34.0845C28.4026 34.2111 28.1695 34.3376 27.9311 34.4669C26.7771 35.0929 25.5017 35.7848 23.9858 36.8721C23.485 37.2314 22.8109 37.2314 22.31 36.8721C20.7956 35.7858 19.5219 35.0943 18.3696 34.4687C18.1302 34.3386 17.8959 34.2115 17.6659 34.0842C16.3495 33.356 15.0933 32.5857 14.1158 31.2242C13.1461 29.8734 12.5517 28.0894 12.1656 25.5125C11.7792 22.9336 11.5831 19.42 11.509 14.506C11.5031 14.121 11.652 13.7498 11.9222 13.4755C12.1924 13.2012 12.5613 13.0468 12.9463 13.0468C13.0108 13.0468 13.0817 13.0472 13.1586 13.0476C14.7095 13.0563 18.7144 13.0787 22.2265 10.1456ZM14.41 15.909C14.4988 20.0262 14.6887 22.9495 15.0088 25.0865C15.3656 27.4676 15.8658 28.7319 16.4513 29.5475C17.0291 30.3524 17.7887 30.8666 19.0576 31.5685C19.2635 31.6825 19.4811 31.8004 19.71 31.9245C20.6699 32.4451 21.8271 33.0726 23.148 33.9557C24.4707 33.0714 25.6297 32.4435 26.5913 31.9225C26.8191 31.7991 27.0358 31.6816 27.241 31.5682C28.5116 30.866 29.273 30.3516 29.8525 29.5463C30.4394 28.7306 30.9411 27.4663 31.299 25.0857C31.6203 22.9492 31.811 20.0261 31.9 15.9093C29.8736 15.8309 26.4204 15.3864 23.1479 13.0626C19.8796 15.3835 16.4315 15.8297 14.41 15.909Z" fill="white"/>
</g>
</svg>
