<svg width="46" height="46" viewBox="0 0 46 46" fill="none" xmlns="http://www.w3.org/2000/svg">
<path d="M9.6524 14.5605C17.0241 7.3431 28.9758 7.3431 36.3474 14.5605L37.2346 15.4292C37.6032 15.79 37.6032 16.3751 37.2346 16.736L34.1996 19.7074C34.0154 19.8879 33.7166 19.8879 33.5324 19.7074L32.3115 18.5121C27.1689 13.477 18.831 13.477 13.6884 18.5121L12.3809 19.7922C12.1966 19.9726 11.8978 19.9726 11.7135 19.7922L8.67864 16.8208C8.31006 16.4599 8.31006 15.8748 8.67864 15.5139L9.6524 14.5605ZM42.6238 20.7057L45.3248 23.3503C45.6934 23.7112 45.6934 24.2962 45.3249 24.6571L33.1457 36.5818C32.777 36.9427 32.1795 36.9427 31.8109 36.5818L23.1668 28.1186C23.0747 28.0283 22.9253 28.0283 22.8332 28.1186L14.1892 36.5818C13.8207 36.9427 13.223 36.9427 12.8544 36.5818L0.674873 24.657C0.306292 24.2961 0.306292 23.7111 0.674873 23.3501L3.37593 20.7056C3.74452 20.3448 4.3421 20.3448 4.71068 20.7056L13.3549 29.169C13.447 29.2592 13.5964 29.2592 13.6886 29.169L22.3324 20.7056C22.7009 20.3448 23.2985 20.3446 23.6672 20.7055L32.3113 29.169C32.4035 29.2592 32.5529 29.2592 32.645 29.169L41.2891 20.7057C41.6577 20.3449 42.2552 20.3449 42.6238 20.7057Z" fill="#1178FE"/>
</svg>
